# xmcd CD database file
#
# Track frame offsets:
#	150
#	14338
#	31221
#	49320
#	62158
#	78509
#	95463
#	113675
#	134897
#	142867
#	156056
#	173311
#	193061
#
# Disc length: 2699 seconds
#
# Revision: 0
# Processed by: cddbd v1.4PL0 Copyright (c) Steve Scherf et al.
# Submitted via: CDex 1.50
#
DISCID=a80a890d
DTITLE=amparanoïa - el poder de machin
DYEAR=1900
DGENRE=Salsa
TTITLE0=hacer dinero
TTITLE1=moreno
TTITLE2=en la noche
TTITLE3=buen rollito
TTITLE4=me lo hago sola
TTITLE5=mi amor se fue
TTITLE6=la semana
TTITLE7=sidikaouki
TTITLE8=sidi beach
TTITLE9=que te den
TTITLE10=killed me
TTITLE11=el achuchon
TTITLE12=paranoïa V.O.
EXTD=
EXTT0=
EXTT1=
EXTT2=
EXTT3=
EXTT4=
EXTT5=
EXTT6=
EXTT7=
EXTT8=
EXTT9=
EXTT10=
EXTT11=
EXTT12=
PLAYORDER=
